name rise42.5664peak47.7979fall81.9185.mot
datacolumns 19
datarows 12
range 22.01158400000000 22.02991900000000
endheader
time	ground_force1_vx	ground_force1_vy	ground_force1_vz	ground_force1_px	ground_force1_py	ground_force1_pz	ground_force2_vx	ground_force2_vy	ground_force2_vz	ground_force2_px	ground_force2_py	ground_force2_pz	ground_torque1_x	ground_torque1_y	ground_torque1_z	ground_torque2_x	ground_torque2_y	ground_torque2_z	
22.01158400000000	-1.90354900000000	702.90709200000003	44.44079500000000	0.16575700000000	0.00000000000000	0.11521700000000	0.00000000000000	0.00000000000000	0.00000000000000	0.00000000000000	0.00000000000000	0.00000000000000	0.00000000000000	15.22993900000000	0.00000000000000	0.00000000000000	0.00000000000000	0.00000000000000	
22.01324400000000	-2.24621300000000	703.97725900000000	44.49406500000000	0.16486100000000	0.00000000000000	0.11519500000000	0.00000000000000	0.00000000000000	0.00000000000000	0.00000000000000	0.00000000000000	0.00000000000000	0.00000000000000	15.26654300000000	0.00000000000000	0.00000000000000	0.00000000000000	0.00000000000000	
22.01493700000000	-2.59578500000000	705.09675500000003	44.55329400000000	0.16395700000000	0.00000000000000	0.11517500000000	0.00000000000000	0.00000000000000	0.00000000000000	0.00000000000000	0.00000000000000	0.00000000000000	0.00000000000000	15.30691800000000	0.00000000000000	0.00000000000000	0.00000000000000	0.00000000000000	
22.01658600000000	-2.95235600000000	706.26358300000004	44.61806100000000	0.16304600000000	0.00000000000000	0.11515600000000	0.00000000000000	0.00000000000000	0.00000000000000	0.00000000000000	0.00000000000000	0.00000000000000	0.00000000000000	15.35091200000000	0.00000000000000	0.00000000000000	0.00000000000000	0.00000000000000	
22.01824800000000	-3.31598100000000	707.47574699999996	44.68794400000000	0.16212600000000	0.00000000000000	0.11513900000000	0.00000000000000	0.00000000000000	0.00000000000000	0.00000000000000	0.00000000000000	0.00000000000000	0.00000000000000	15.39836800000000	0.00000000000000	0.00000000000000	0.00000000000000	0.00000000000000	
22.01991400000000	-3.68668200000000	708.73125100000004	44.76252300000000	0.16120000000000	0.00000000000000	0.11512400000000	0.00000000000000	0.00000000000000	0.00000000000000	0.00000000000000	0.00000000000000	0.00000000000000	0.00000000000000	15.44912600000000	0.00000000000000	0.00000000000000	0.00000000000000	0.00000000000000	
22.02157900000000	-4.06445100000000	710.02810799999997	44.84138100000000	0.16026800000000	0.00000000000000	0.11510900000000	0.00000000000000	0.00000000000000	0.00000000000000	0.00000000000000	0.00000000000000	0.00000000000000	0.00000000000000	15.50302700000000	0.00000000000000	0.00000000000000	0.00000000000000	0.00000000000000	
22.02325300000000	-4.44924500000000	711.36434299999996	44.92410700000000	0.15933000000000	0.00000000000000	0.11509600000000	0.00000000000000	0.00000000000000	0.00000000000000	0.00000000000000	0.00000000000000	0.00000000000000	0.00000000000000	15.55990800000000	0.00000000000000	0.00000000000000	0.00000000000000	0.00000000000000	
22.02492100000000	-4.84099000000000	712.73799399999996	45.01029400000000	0.15838700000000	0.00000000000000	0.11508400000000	0.00000000000000	0.00000000000000	0.00000000000000	0.00000000000000	0.00000000000000	0.00000000000000	0.00000000000000	15.61960600000000	0.00000000000000	0.00000000000000	0.00000000000000	0.00000000000000	
22.02658300000000	-5.23958300000000	714.14711899999998	45.09954100000000	0.15744000000000	0.00000000000000	0.11507400000000	0.00000000000000	0.00000000000000	0.00000000000000	0.00000000000000	0.00000000000000	0.00000000000000	0.00000000000000	15.68195900000000	0.00000000000000	0.00000000000000	0.00000000000000	0.00000000000000	
22.02824900000000	-5.64488700000000	715.58979399999998	45.19145900000000	0.15648900000000	0.00000000000000	0.11506400000000	0.00000000000000	0.00000000000000	0.00000000000000	0.00000000000000	0.00000000000000	0.00000000000000	0.00000000000000	15.74680100000000	0.00000000000000	0.00000000000000	0.00000000000000	0.00000000000000	
22.02991900000000	-6.05674000000000	717.06411900000001	45.28566500000000	0.15553500000000	0.00000000000000	0.11505500000000	0.00000000000000	0.00000000000000	0.00000000000000	0.00000000000000	0.00000000000000	0.00000000000000	0.00000000000000	15.81396900000000	0.00000000000000	0.00000000000000	0.00000000000000	0.00000000000000	
